<svg width="97" height="43" viewBox="0 0 97 43" fill="none" xmlns="http://www.w3.org/2000/svg">
<g clip-path="url(#clip0_412_795)">
<path fill-rule="evenodd" clip-rule="evenodd" d="M13.47 42.57C9.61 42.57 6.79 42.73 3.6 40.01C2.4726 39.062 1.5662 37.8788 0.944302 36.5435C0.322402 35.2082 0.0001 33.753 0 32.28V0H5.64V32.61C5.64 37.13 9.64 38 13.47 37.69V42.57Z" fill="white"/>
<path fill-rule="evenodd" clip-rule="evenodd" d="M17.0503 13.1799H22.4403V31.3499C22.4403 35.4099 25.6203 37.6899 29.4403 37.6899C33.2603 37.6899 36.3003 35.2899 36.3003 31.3499V13.1799H41.6903V29.8199C41.6903 38.0899 38.1003 42.5799 29.3003 42.5799C21.3003 42.5799 17.0603 38.4099 17.0603 30.5799L17.0503 13.1799Z" fill="white"/>
<path fill-rule="evenodd" clip-rule="evenodd" d="M47.3203 42.1799H52.6503V22.8799C52.6503 21.4212 53.2293 20.0223 54.2613 18.9908C55.2923 17.9594 56.6913 17.3799 58.1503 17.3799C59.6093 17.3799 61.0083 17.9594 62.0393 18.9908C63.0713 20.0223 63.6503 21.4212 63.6503 22.8799V42.1799H69.1003V22.8799C69.1003 21.4212 69.6793 20.0223 70.7113 18.9908C71.7423 17.9594 73.1413 17.3799 74.6003 17.3799C76.0593 17.3799 77.4583 17.9594 78.4893 18.9908C79.5213 20.0223 80.1003 21.4212 80.1003 22.8799V42.1799H85.3003V23.4999C85.2923 20.6354 84.1513 17.8904 82.1253 15.8648C80.1003 13.8393 77.3553 12.6978 74.4903 12.6899C72.9453 12.6914 71.4193 13.0253 70.0143 13.6689C68.6093 14.3125 67.3603 15.2507 66.3503 16.4199C65.3373 15.2515 64.0863 14.3139 62.6803 13.6704C61.2743 13.027 59.7463 12.6926 58.2003 12.6899C55.3353 12.6978 52.5903 13.8393 50.5653 15.8648C48.5393 17.8904 47.3983 20.6354 47.3903 23.4999L47.3203 42.1799Z" fill="white"/>
<path d="M96.5199 13.1299H90.8799V42.1398H96.5199V13.1299Z" fill="white"/>
<path fill-rule="evenodd" clip-rule="evenodd" d="M93.7002 3.29982C94.3432 3.29982 94.9722 3.49072 95.5072 3.84822C96.0412 4.20582 96.4582 4.71392 96.7032 5.30842C96.9492 5.90282 97.0132 6.55682 96.8872 7.18752C96.7602 7.81822 96.4502 8.39732 95.9942 8.85142C95.5392 9.30552 94.9592 9.61432 94.3282 9.73862C93.6972 9.86282 93.0432 9.79702 92.4492 9.54952C91.8562 9.30202 91.3492 8.88392 90.9932 8.34812C90.6372 7.81232 90.4482 7.18302 90.4502 6.53982C90.4502 6.11352 90.5342 5.69132 90.6972 5.29762C90.8612 4.90382 91.1012 4.54622 91.4022 4.24522C91.7042 3.94422 92.0632 3.70582 92.4572 3.54352C92.8512 3.38132 93.2742 3.29852 93.7002 3.29982Z" fill="#00FF89"/>
</g>
<defs>
<clipPath id="clip0_412_795">
<rect width="96.9501" height="42.5799" fill="white"/>
</clipPath>
</defs>
</svg>
